<?xml version="1.0" standalone="no"?>
<!DOCTYPE svg PUBLIC "-//W3C//DTD SVG 20010904//EN"
 "http://www.w3.org/TR/2001/REC-SVG-20010904/DTD/svg10.dtd">
<svg version="1.0" xmlns="http://www.w3.org/2000/svg"
 width="225.000000pt" height="274.000000pt" viewBox="0 0 225.000000 274.000000"
 preserveAspectRatio="xMidYMid meet">
<metadata>
Created by potrace 1.16, written by Peter Selinger 2001-2019
</metadata>
<g transform="translate(0.000000,274.000000) scale(0.100000,-0.100000)"
fill="#000000" stroke="none">
<path d="M1491 2629 c-171 -26 -363 -158 -437 -301 -8 -15 -20 -28 -26 -28 -6
0 -33 21 -60 46 -119 112 -311 154 -493 109 -107 -27 -243 -129 -315 -237 -44
-67 -50 -103 -21 -139 17 -22 25 -23 147 -24 130 -1 224 -18 224 -39 0 -6 -30
-27 -67 -46 -132 -69 -261 -225 -314 -380 -47 -138 -34 -405 24 -492 19 -27
30 -34 64 -36 37 -3 44 0 59 25 69 113 117 177 191 254 47 49 89 86 94 83 5
-3 9 -38 9 -77 1 -141 41 -265 126 -384 46 -65 93 -103 127 -103 10 0 28 10
41 23 19 19 25 42 35 123 7 55 28 146 47 204 39 118 124 285 145 285 32 0 112
-310 130 -506 17 -186 -11 -443 -68 -619 l-18 -54 -129 -33 c-137 -34 -171
-50 -188 -89 -14 -31 2 -70 37 -86 20 -9 40 -7 103 10 323 89 676 89 995 2 88
-24 111 -21 132 21 19 36 11 75 -20 95 -31 20 -152 54 -245 68 l-75 12 -7 154
c-20 417 -98 741 -253 1059 -41 83 -71 153 -66 155 15 9 149 -14 231 -40 137
-43 209 -84 339 -196 68 -58 98 -62 136 -16 27 32 27 34 23 148 -8 185 -61
307 -187 435 -68 68 -175 131 -264 155 -26 7 -50 17 -53 22 -13 21 268 118
343 118 13 0 35 12 50 26 39 39 27 76 -47 146 -123 118 -316 174 -499 147z
m191 -150 c57 -12 138 -47 138 -59 0 -4 -19 -12 -42 -19 -154 -46 -314 -137
-401 -230 -52 -55 -55 -66 -30 -93 13 -15 32 -18 107 -18 239 -1 413 -98 501
-281 34 -70 53 -135 43 -145 -3 -2 -45 20 -93 51 -160 100 -403 158 -579 138
-58 -7 -72 -12 -88 -34 l-20 -26 74 -142 73 -142 -27 -20 c-56 -42 -22 -130
44 -114 15 4 29 1 36 -8 10 -11 62 -150 62 -163 0 -2 -13 -10 -30 -19 -27 -14
-30 -20 -30 -63 0 -61 15 -80 65 -84 39 -3 40 -4 52 -53 7 -27 14 -72 15 -98
3 -47 2 -49 -31 -60 -19 -7 -43 -24 -54 -38 -17 -24 -18 -30 -6 -55 12 -25 21
-30 64 -34 l50 -5 8 -48 c4 -26 6 -100 5 -164 l-3 -117 -140 -2 c-76 -1 -142
-1 -146 2 -4 2 -1 25 7 50 62 207 74 521 29 770 -38 206 -167 544 -214 559
-35 11 -59 -12 -139 -134 -90 -135 -145 -256 -176 -383 -11 -48 -25 -88 -29
-88 -4 0 -20 26 -35 58 -21 47 -27 75 -30 157 -5 113 16 194 69 273 34 50 37
82 9 107 -25 23 -56 12 -164 -56 -115 -73 -238 -180 -309 -270 -34 -42 -65
-75 -69 -73 -13 8 -9 114 6 185 45 210 214 376 451 444 74 21 85 30 85 65 0
65 -266 189 -407 190 -23 0 -44 4 -47 9 -4 5 11 23 31 39 109 85 246 112 372
73 89 -27 141 -62 214 -141 59 -64 69 -71 99 -68 30 3 37 10 78 87 117 221
336 336 552 290z"/>
</g>
</svg>
