<svg xmlns="http://www.w3.org/2000/svg" viewBox="0 0 1200 500">
  <g fill="none" stroke="#00ffff" stroke-width="4" stroke-linecap="round" stroke-linejoin="round">
    <path d="M 674.15 295.45 Q 669.03 303.98 658.81 307.39"/>
    <path d="M 701.42 136.93 Q 703.12 143.75 706.53 147.16 Q 709.94 150.57 720.17 151.42 Q 730.40 152.27 737.22 148.01 Q 744.03 143.75 747.44 135.23"/>
    <path d="M 749.15 218.75 Q 744.03 228.98 738.07 232.39 Q 732.10 235.80 721.88 234.94 Q 711.65 234.09 707.39 229.83 Q 703.12 225.57 701.42 218.75"/>
    <path d="M 643.47 339.77 Q 646.88 324.43 650.28 321.88 Q 653.69 319.32 658.81 307.39"/>
    <path d="M 643.47 339.77 Q 701.42 339.77 711.65 323.58 Q 721.88 307.39 731.25 308.24 Q 740.62 309.09 745.74 312.50"/>
    <path d="M 643.47 339.77 L 643.47 350.00"/>
    <path d="M 628.12 177.84 Q 636.65 191.48 647.73 193.18 Q 658.81 194.89 665.62 189.77 Q 672.44 184.66 675.85 176.14"/>
    <path d="M 767.90 302.27 Q 762.78 310.80 745.74 312.50"/>
    <path d="M 527.56 167.61 Q 520.74 179.55 516.48 182.10 Q 512.22 184.66 501.99 183.81 Q 491.76 182.95 479.83 167.61"/>
    <path d="M 674.15 102.84 Q 669.03 113.07 663.07 116.48 Q 657.10 119.89 646.88 119.03 Q 636.65 118.18 632.39 113.92 Q 628.12 109.66 626.42 102.84"/>
    <path d="M 602.56 135.23 Q 597.44 145.45 591.48 148.86 Q 585.51 152.27 573.58 150.57 Q 561.65 148.86 554.83 135.23"/>
    <path d="M 123.58 237.50 L 126.99 203.41"/>
    <path d="M 123.58 237.50 Q 111.65 240.91 103.98 240.06 Q 96.31 239.20 91.19 233.24 Q 86.08 227.27 85.23 220.45 Q 84.38 213.64 86.93 207.67 Q 89.49 201.70 95.45 198.30 Q 101.42 194.89 105.68 194.89 Q 109.94 194.89 126.99 203.41"/>
    <path d="M 123.58 237.50 Q 149.15 247.73 169.60 251.99 Q 190.06 256.25 212.22 258.81 Q 234.38 261.36 271.02 261.36 Q 307.67 261.36 331.53 266.48 Q 355.40 271.59 365.62 276.70 Q 375.85 281.82 379.26 286.08 Q 382.67 290.34 380.11 299.72 Q 377.56 309.09 366.48 315.91 Q 355.40 322.73 353.69 328.69 Q 351.99 334.66 352.84 337.22 Q 353.69 339.77 381.82 339.77 Q 409.94 339.77 420.17 323.58 Q 430.40 307.39 439.77 308.24 Q 449.15 309.09 454.26 312.50"/>
    <path d="M 813.92 177.84 Q 805.40 189.77 800.28 192.33 Q 795.17 194.89 789.20 194.89 Q 783.24 194.89 779.83 193.18 Q 776.42 191.48 772.16 187.22 Q 767.90 182.95 767.90 179.55"/>
    <path d="M 537.78 283.52 L 536.08 302.27"/>
    <path d="M 602.56 217.05 Q 594.03 230.68 588.07 233.24 Q 582.10 235.80 572.73 234.09 Q 563.35 232.39 554.83 217.05"/>
    <path d="M 474.72 302.27 Q 471.31 310.80 454.26 312.50"/>
    <path d="M 839.49 278.41 L 839.49 275.00"/>
    <path d="M 839.49 278.41 Q 832.67 281.82 825.00 300.57 Q 817.33 319.32 810.51 328.69 Q 803.69 338.07 780.68 339.77 Q 757.67 341.48 748.30 340.62 Q 738.92 339.77 739.77 332.10 Q 740.62 324.43 745.74 312.50"/>
    <path d="M 839.49 278.41 Q 853.12 285.23 865.06 294.60 Q 876.99 303.98 891.48 311.65 Q 905.97 319.32 924.72 325.28 Q 943.47 331.25 964.77 334.66 Q 986.08 338.07 1005.68 337.22 Q 1025.28 336.36 1050.00 330.40 Q 1074.72 324.43 1083.24 320.17 Q 1091.76 315.91 1101.99 308.24 Q 1112.22 300.57 1113.92 292.05 Q 1115.62 283.52 1107.10 283.52 Q 1098.58 283.52 1081.53 286.93 Q 1064.49 290.34 1046.59 290.34 Q 1028.69 290.34 1009.94 286.93 Q 991.19 283.52 972.44 275.85 Q 953.69 268.18 940.06 258.81 Q 926.42 249.43 915.34 239.20 Q 904.26 228.98 892.33 214.49 Q 880.40 200.00 861.65 171.88 Q 842.90 143.75 823.30 123.30 Q 803.69 102.84 778.12 86.65 Q 752.56 70.45 734.66 63.64 Q 716.76 56.82 702.27 54.26 Q 687.78 51.70 674.15 50.85 Q 660.51 50.00 640.06 51.70 Q 619.60 53.41 570.17 68.75 Q 520.74 84.09 504.55 87.50 Q 488.35 90.91 469.60 90.91 Q 450.85 90.91 413.35 83.24 Q 375.85 75.57 363.07 75.57 Q 350.28 75.57 340.91 77.27 Q 331.53 78.98 317.90 84.94 Q 304.26 90.91 294.89 97.73 Q 285.51 104.55 271.88 119.89 Q 258.24 135.23 251.42 146.31 Q 244.60 157.39 234.38 166.76 Q 224.15 176.14 215.62 181.25 Q 207.10 186.36 192.61 191.48 Q 178.12 196.59 126.99 203.41"/>
    <path d="M 658.81 307.39 Q 655.40 302.27 536.08 302.27"/>
    <path d="M 454.26 312.50 Q 447.44 336.36 448.30 338.07 Q 449.15 339.77 478.98 339.77 Q 508.81 339.77 517.33 328.69 Q 525.85 317.61 527.56 311.65 Q 529.26 305.68 536.08 302.27"/>
    <path d="M 343.47 203.41 Q 329.83 200.00 325.57 195.74 Q 321.31 191.48 319.60 188.07 Q 317.90 184.66 317.90 176.99 Q 317.90 169.32 324.72 160.80 Q 331.53 152.27 335.80 150.57 Q 340.06 148.86 346.02 148.86 Q 351.99 148.86 356.25 150.57 Q 360.51 152.27 363.92 156.53 Q 367.33 160.80 369.03 165.06 Q 370.74 169.32 370.74 176.99 Q 370.74 184.66 369.03 188.92 Q 367.33 193.18 363.07 197.44 Q 358.81 201.70 343.47 203.41"/>
  </g>
</svg>
