<?xml version="1.0" standalone="no"?>
<!DOCTYPE svg PUBLIC "-//W3C//DTD SVG 20010904//EN"
 "http://www.w3.org/TR/2001/REC-SVG-20010904/DTD/svg10.dtd">
<svg version="1.0" xmlns="http://www.w3.org/2000/svg"
 width="129.000000pt" height="190.000000pt" viewBox="0 0 129.000000 190.000000"
 preserveAspectRatio="xMidYMid meet">
<metadata>
Created by potrace 1.16, written by Peter Selinger 2001-2019
</metadata>
<g transform="translate(0.000000,190.000000) scale(0.100000,-0.100000)"
fill="#000000" stroke="none">
<path d="M76 1821 c-14 -16 -16 -98 -16 -872 0 -652 3 -858 12 -867 17 -17
404 -17 415 1 4 6 10 147 13 312 l5 300 40 3 c68 5 77 -9 87 -139 13 -180 47
-321 105 -445 l18 -39 215 -5 c163 -4 220 -2 238 8 28 16 28 21 -4 90 -64 139
-98 257 -109 377 -9 101 -25 184 -38 209 -7 11 -32 42 -56 68 l-45 47 46 40
c57 51 86 116 100 229 14 116 4 369 -17 447 -20 71 -31 87 -56 80 -21 -7 -25
5 -8 22 12 12 -4 53 -22 53 -6 0 -27 13 -47 28 -46 36 -111 57 -150 49 -20 -4
-34 -1 -42 8 -10 12 -66 15 -340 15 -302 -1 -329 -2 -344 -19z m554 -397 c15
-15 20 -40 25 -114 7 -121 -2 -197 -27 -222 -15 -15 -30 -18 -71 -16 l-52 3
-3 175 c-1 96 0 181 3 188 8 21 101 10 125 -14z"/>
</g>
</svg>
