<?xml version="1.0" standalone="no"?>
<!DOCTYPE svg PUBLIC "-//W3C//DTD SVG 20010904//EN"
 "http://www.w3.org/TR/2001/REC-SVG-20010904/DTD/svg10.dtd">
<svg version="1.0" xmlns="http://www.w3.org/2000/svg"
 width="121.000000pt" height="209.000000pt" viewBox="0 0 121.000000 209.000000"
 preserveAspectRatio="xMidYMid meet">
<metadata>
Created by potrace 1.16, written by Peter Selinger 2001-2019
</metadata>
<g transform="translate(0.000000,209.000000) scale(0.100000,-0.100000)"
fill="#000000" stroke="none">
<path d="M350 2020 c-70 -9 -103 -24 -163 -73 -66 -55 -95 -108 -113 -213 -13
-76 -15 -176 -11 -664 4 -590 4 -600 44 -675 64 -120 139 -158 352 -175 68 -6
130 -15 138 -21 7 -7 30 -38 50 -70 44 -72 41 -71 277 -67 l178 3 24 28 c13
15 24 35 24 43 0 9 -30 58 -66 110 -66 95 -66 95 -48 117 30 35 42 60 60 129
14 55 17 132 19 603 1 297 -2 575 -6 617 -17 170 -112 277 -274 307 -65 12
-398 13 -485 1z m279 -389 c11 -11 22 -39 26 -63 3 -24 4 -245 3 -491 l-3
-449 -24 -19 c-30 -24 -62 -24 -92 0 l-24 19 -3 466 c-1 256 1 480 6 498 14
53 75 75 111 39z"/>
</g>
</svg>
