<?xml version="1.0" standalone="no"?>
<!DOCTYPE svg PUBLIC "-//W3C//DTD SVG 20010904//EN"
 "http://www.w3.org/TR/2001/REC-SVG-20010904/DTD/svg10.dtd">
<svg version="1.0" xmlns="http://www.w3.org/2000/svg"
 width="90.000000pt" height="228.000000pt" viewBox="0 0 90.000000 228.000000"
 preserveAspectRatio="xMidYMid meet">
<metadata>
Created by potrace 1.16, written by Peter Selinger 2001-2019
</metadata>
<g transform="translate(0.000000,228.000000) scale(0.100000,-0.100000)"
fill="#000000" stroke="none">
<path d="M326 2213 c-50 -2 -96 -9 -103 -15 -10 -8 -11 -46 -6 -172 3 -89 3
-179 -1 -199 l-7 -37 -63 0 c-43 0 -67 -5 -75 -14 -16 -19 -13 -332 4 -346 6
-5 38 -10 70 -12 l60 -3 7 -45 c4 -25 7 -279 8 -565 0 -587 0 -584 74 -660 61
-63 108 -74 331 -76 101 -1 188 2 194 5 16 10 15 318 -1 334 -7 7 -41 12 -83
12 -118 0 -109 -28 -113 372 -3 308 -3 403 2 573 l1 50 100 5 100 5 7 50 c12
82 5 280 -11 299 -11 13 -32 16 -102 16 -48 0 -90 4 -93 9 -3 5 -7 96 -8 202
-1 107 -6 200 -11 207 -9 12 -59 13 -281 5z"/>
</g>
</svg>
