<svg xmlns="http://www.w3.org/2000/svg" viewBox="0 0 1000 1000"><path d="M 638.8,90.0 585.6,98.1 543.6,117.4 496.8,157.8 466.1,201.4 427.4,165.9 369.3,143.3 304.7,143.3 272.4,153.0 227.2,178.8 177.2,238.5 177.2,267.6 191.7,278.9 256.3,275.6 306.3,290.2 259.5,314.4 206.2,367.6 177.2,422.5 169.1,462.9 Z M 827.7,408.0 809.9,345.0 787.3,309.5 747.0,269.2 705.0,246.6 664.6,235.3 669.5,227.2 705.0,211.1 788.9,191.7 800.2,173.9 793.8,154.6 766.3,127.1 734.1,107.8 698.5,94.8 658.2,90.0 Z M 648.5,832.5 551.7,832.5 574.3,726.0 574.3,616.2 548.4,493.5 519.4,419.3 501.6,388.6 482.2,388.6 438.7,448.3 403.1,522.6 385.4,585.6 374.1,567.8 361.2,516.1 367.6,464.5 380.6,432.2 396.7,409.6 396.7,396.7 385.4,385.4 356.3,395.1 295.0,437.0 212.7,522.6 212.7,474.2 219.1,445.1 254.6,380.6 307.9,337.0 333.7,324.1 382.2,311.1 390.2,303.1 385.4,282.1 330.5,249.8 275.6,233.7 241.7,232.0 275.6,201.4 317.6,188.5 372.5,191.7 417.7,214.3 459.6,259.5 482.2,262.7 525.8,193.3 556.5,165.9 592.0,146.5 627.5,136.8 666.3,136.8 705.0,146.5 726.0,161.0 675.9,175.6 621.1,204.6 567.8,251.4 564.6,264.3 575.9,275.6 640.4,275.6 669.5,282.1 721.1,307.9 764.7,358.0 780.9,399.9 780.9,416.1 721.1,378.9 653.3,356.3 543.6,353.1 529.1,370.9 574.3,458.0 574.3,467.7 566.2,469.3 558.1,480.6 558.1,496.8 572.6,508.1 593.6,506.5 613.0,558.1 609.8,567.8 593.6,577.5 593.6,603.3 604.9,614.6 624.3,611.4 629.1,616.2 638.8,680.8 609.8,690.5 606.5,716.3 614.6,724.4 645.3,726.0 648.5,832.5 Z M 793.8,906.8 805.1,901.9 813.1,887.4 801.9,863.2 693.7,835.7 693.7,729.2 674.3,609.8 638.8,496.8 590.4,396.7 646.9,401.5 695.3,417.7 747.0,446.7 798.6,488.7 814.8,485.5 827.7,469.3 Z M 169.1,533.9 183.6,587.2 194.9,598.5 214.3,598.5 225.6,590.4 261.1,532.3 317.6,475.8 322.4,480.6 322.4,548.4 338.6,596.9 370.9,645.3 382.2,656.6 404.8,663.0 422.5,645.3 429.0,583.9 448.3,522.6 474.2,470.9 490.3,454.8 512.9,519.4 529.1,600.1 532.3,690.5 525.8,748.6 503.2,839.0 437.0,853.5 404.8,866.4 396.7,890.6 412.8,906.8 Z M 429.0,906.8 495.2,889.0 582.3,879.3 675.9,882.6 784.1,906.8 Z" fill="#B9EC29" fill-rule="nonzero"/></svg>